PathFileType	4	(X/Y/Z)	C:/Users/opensim2020/Desktop/walking_exp_matlab/subject06_walking14_straight_03.trc																																																																																																																																					
DataRate	CameraRate	NumFrames	NumMarkers	Units	OrigDataRate	OrigDataStartFrame	OrigNumFrames																																																																																																																																	
100	100	4	45	mm	100	2382	233																																																																																																																																	
Frame#	Time	LFHD			RFHD			LBHD			RBHD			C7			T10			CLAV			STRN			RBAK			LSHO			LUPA			LELB			LFRM			LWRA			LWRB			LFIN			RSHO			RUPA			RELB			RFRM			RWRA			RWRB			RFIN			LASI			RASI			LPSI			RPSI			LTHI			LKNE			LTIB			LANK			LHEE			LTOE			RTHI			RKNE			RTIB			RANK			RHEE			RTOE			*39			*40			*41			*42			*43			*44		
		X1	Y1	Z1	X2	Y2	Z2	X3	Y3	Z3	X4	Y4	Z4	X5	Y5	Z5	X6	Y6	Z6	X7	Y7	Z7	X8	Y8	Z8	X9	Y9	Z9	X10	Y10	Z10	X11	Y11	Z11	X12	Y12	Z12	X13	Y13	Z13	X14	Y14	Z14	X15	Y15	Z15	X16	Y16	Z16	X17	Y17	Z17	X18	Y18	Z18	X19	Y19	Z19	X20	Y20	Z20	X21	Y21	Z21	X22	Y22	Z22	X23	Y23	Z23	X24	Y24	Z24	X25	Y25	Z25	X26	Y26	Z26	X27	Y27	Z27	X28	Y28	Z28	X29	Y29	Z29	X30	Y30	Z30	X31	Y31	Z31	X32	Y32	Z32	X33	Y33	Z33	X34	Y34	Z34	X35	Y35	Z35	X36	Y36	Z36	X37	Y37	Z37	X38	Y38	Z38	X39	Y39	Z39	X40	Y40	Z40	X41	Y41	Z41	X42	Y42	Z42	X43	Y43	Z43	X44	Y44	Z44	X45	Y45	Z45
																																																																																																																																								
175	1.74	850.4444	1669.82874	1368.89746	855.99646	1661.99939	1501.0531	715.57233	1617.78076	1374.14478	722.09802	1615.06409	1503.92175	714.93341	1459.9032	1431.21484	678.00739	1131.87573	1447.75854	824.40173	1382.83008	1433.89685	864.74762	1206.88928	1430.01355	641.60059	1291.35193	1512.48938	768.58936	1410.49304	1271.39746	780.84558	1205.58191	1208.88281	792.5224	1092.65808	1203.65173	866.96387	962.82666	1185.34338	976.57971	892.44812	1222.61328	922.44006	856.75153	1195.90833	996.29315	805.96466	1189.72253	779.96631	1416.82642	1594.36414	725.55536	1222.07251	1683.12	722.79919	1099.77539	1695.71387	725.84467	979.77435	1714.63928	769.60516	833.27148	1685.85645	715.65277	841.95605	1724.60999	741.81104	761.0946	1727.28577	845.33759	963.7384	1335.94336	861.7962	979.9881	1555.11841	690.37823	993.73486	1373.82617	708.1261	1006.61847	1540.56812	788.4118	645.34668	1286.35632	805.55914	483.0842	1302.9104	618.81549	321.90103	1315.29553	493.27576	205.41939	1354.8927	457.06329	220.70724	1403.90637	567.04181	82.22356	1351.83826	832.89819	645.65094	1614.2793	849.0448	522.31024	1584.79016	803.43756	257.89389	1582.66199	784.49854	73.511	1533.51526	742.78845	50.74332	1491.28271	938.30792	37.84072	1529.26672	753.13971	1711.48987	1430.65356	NaN	NaN	NaN	NaN	NaN	NaN	NaN	NaN	NaN	NaN	NaN	NaN	NaN	NaN	NaN
176	1.75	860.30884	1670.53333	1368.41357	865.914	1662.77905	1500.14697	725.47583	1618.3252	1374.26331	732.58472	1615.91089	1504.04297	725.56659	1460.87781	1432.31531	688.10028	1132.85291	1449.07678	834.65759	1383.60986	1433.96997	874.1131	1207.42651	1429.98535	652.29382	1292.52576	1514.23474	777.9834	1410.73474	1271.74414	788.11316	1205.37683	1209.76331	797.45459	1092.18542	1204.45154	868.66553	959.51965	1185.95325	975.48871	885.53473	1222.66382	919.78162	851.78986	1196.70422	991.68781	798.40668	1189.62817	791.75049	1417.65259	1594.64624	740.2287	1222.40063	1684.32581	738.92902	1100.07324	1696.90466	744.75824	980.25739	1715.72302	791.89667	835.16693	1685.85962	737.9989	842.12274	1725.05615	766.53619	762.16418	1727.39539	855.3678	965.00891	1336.49304	871.3844	980.39709	1555.9325	700.21692	994.73328	1374.38574	717.75262	1007.18451	1541.13	803.46985	646.99017	1286.41003	824.03394	485.16776	1302.85645	639.24908	322.05862	1315.69214	514.8772	204.41194	1355.52209	478.72177	218.565	1405.06335	591.22888	83.19252	1350.45117	838.45502	645.47473	1614.30859	852.646	521.68445	1585.25085	804.61633	257.96451	1582.34216	784.63733	73.55584	1533.35632	743.05914	50.83101	1491.40759	938.20398	37.80959	1529.3175	763.20624	1712.19604	1430.45471	NaN	NaN	NaN	NaN	NaN	NaN	NaN	NaN	NaN	NaN	NaN	NaN	NaN	NaN	NaN
177	1.76	870.16754	1671.00061	1367.86157	876.71014	1663.6969	1499.98059	735.09064	1618.78979	1374.11755	743.03668	1616.63086	1504.11121	735.4978	1461.42407	1432.5177	697.92456	1133.82703	1450.29639	844.78772	1384.08923	1433.95862	883.77057	1207.87964	1430.09875	662.88489	1293.58801	1515.8175	787.46252	1410.95239	1272.05688	795.28699	1205.32361	1210.15552	802.93652	1091.96301	1204.97205	869.237	956.76257	1186.8241	973.74127	878.70325	1222.6698	916.60486	846.94995	1197.42139	986.49341	791.15802	1189.36206	803.29919	1418.48401	1594.89087	754.88098	1222.78845	1685.5376	755.29303	1100.55884	1698.24438	763.98712	980.76727	1716.54724	814.28699	837.2868	1685.61218	760.81079	842.55646	1725.52612	791.63403	763.56628	1727.42627	865.48132	966.30042	1337.24719	880.92261	980.59424	1556.58655	710.07587	995.74011	1374.91858	727.47577	1007.62909	1541.66309	818.48071	648.56219	1286.36108	842.19788	487.18918	1303.03772	660.06708	321.48212	1315.98376	537.28699	202.24313	1355.93518	501.02975	215.23187	1405.86401	617.61041	84.01575	1348.01111	844.12164	645.24664	1614.21387	856.55267	521.35638	1585.93188	806.1546	257.93604	1582.02112	784.75049	73.61385	1533.18518	742.88318	50.93719	1490.95532	938.17584	37.88307	1529.42358	773.32153	1712.79736	1430.23523	NaN	NaN	NaN	NaN	NaN	NaN	NaN	NaN	NaN	NaN	NaN	NaN	NaN	NaN	NaN
178	1.77	879.97168	1671.28467	1367.23926	886.66895	1664.20569	1498.96167	745.74182	1619.3064	1374.6582	753.46356	1617.25684	1504.1344	745.63617	1461.94971	1433.06006	707.73462	1134.42407	1451.41418	854.95978	1384.56287	1434.06116	893.71283	1208.22314	1430.35498	673.4444	1294.46753	1517.20789	796.92511	1411.13391	1272.37512	802.76617	1205.24939	1210.48328	808.42407	1091.77173	1205.56189	870.12677	953.9212	1187.24634	971.62592	872.15509	1222.51477	913.00183	842.53894	1197.97498	980.68787	784.30902	1189.20605	814.49518	1419.26929	1594.98669	769.34625	1223.27539	1686.6427	771.54352	1101.03711	1699.29468	783.24457	981.56195	1717.44092	836.87	839.67889	1685.19238	783.97656	843.39349	1726.00659	817.16309	765.49646	1727.39868	874.96332	967.1886	1337.89746	890.46375	980.67297	1557.16064	719.88733	996.52856	1375.39209	737.17365	1007.98761	1542.16968	833.19354	650.12122	1286.32581	860.17804	489.26376	1303.18408	681.23151	320.32788	1316.20483	560.61609	198.97192	1356.21777	523.99866	210.74205	1406.34668	643.6319	83.10014	1347.43433	849.9552	644.92065	1614.08838	860.71576	520.65234	1586.19556	808.07635	257.87695	1581.67944	784.9657	73.67847	1533.08582	742.84851	50.99092	1490.8457	938.12738	38.01543	1529.44897	783.38147	1713.23083	1429.86487	NaN	NaN	NaN	NaN	NaN	NaN	NaN	NaN	NaN	NaN	NaN	NaN	NaN	NaN	NaN
